# This file uses centimeters as units for non-parametric coordinates.

mtllib Sign.mtl
g blendShape1Set curveWarp1Set curveWarp2Set curveWarp3Set tweakSet1
v -4.241848 4.198388 0.484188
v 4.241848 4.214393 0.582736
v -4.241848 9.234117 -0.232532
v 4.241848 9.218111 -0.331080
v -4.241848 9.259491 -0.377182
v 4.241848 9.259491 -0.377182
v -4.241848 4.173013 -0.377182
v 4.241848 4.173013 -0.377182
vt 0.375000 0.000000
vt 0.625000 0.000000
vt 0.625000 0.250000
vt 0.375000 0.250000
vt 0.625000 0.500000
vt 0.375000 0.500000
vt 0.625000 0.750000
vt 0.375000 0.750000
vt 0.625000 1.000000
vt 0.375000 1.000000
vt 0.875000 0.000000
vt 0.875000 0.250000
vt 0.125000 0.000000
vt 0.125000 0.250000
vn 0.000000 0.160312 0.987066
vn 0.000000 0.160312 0.987066
vn 0.000000 0.160312 0.987066
vn 0.000000 0.160312 0.987066
vn 0.000000 1.000000 0.000000
vn 0.000000 1.000000 0.000000
vn 0.000000 1.000000 0.000000
vn 0.000000 1.000000 0.000000
vn 0.000000 0.000000 -1.000000
vn 0.000000 0.000000 -1.000000
vn 0.000000 0.000000 -1.000000
vn 0.000000 0.000000 -1.000000
vn 0.000000 -1.000000 0.000000
vn 0.000000 -1.000000 0.000000
vn 0.000000 -1.000000 0.000000
vn 0.000000 -1.000000 0.000000
vn 1.000000 0.000000 0.000000
vn 1.000000 0.000000 0.000000
vn 1.000000 0.000000 0.000000
vn 1.000000 0.000000 0.000000
vn -1.000000 0.000000 0.000000
vn -1.000000 0.000000 0.000000
vn -1.000000 0.000000 0.000000
vn -1.000000 0.000000 0.000000
s off
g Sign:pCube2
usemtl Sign:initialShadingGroup
f 1/1/1 2/2/2 4/3/3 3/4/4
f 3/4/5 4/3/6 6/5/7 5/6/8
f 5/6/9 6/5/10 8/7/11 7/8/12
f 7/8/13 8/7/14 2/9/15 1/10/16
f 2/2/17 8/11/18 6/12/19 4/3/20
f 7/13/21 1/1/22 3/4/23 5/14/24
g default
v -0.191153 0.144331 0.174507
v 0.546613 0.144331 0.174507
v -0.191153 4.709020 0.174507
v 0.546613 4.709020 0.174507
v -0.191153 4.709020 -0.100851
v 0.546613 4.709020 -0.100851
v -0.191153 0.144331 -0.100851
v 0.546613 0.144331 -0.100851
vt 0.375000 0.000000
vt 0.625000 0.000000
vt 0.375000 0.250000
vt 0.625000 0.250000
vt 0.375000 0.500000
vt 0.625000 0.500000
vt 0.375000 0.750000
vt 0.625000 0.750000
vt 0.375000 1.000000
vt 0.625000 1.000000
vt 0.875000 0.000000
vt 0.875000 0.250000
vt 0.125000 0.000000
vt 0.125000 0.250000
vn 0.000000 0.000000 1.000000
vn 0.000000 0.000000 1.000000
vn 0.000000 0.000000 1.000000
vn 0.000000 0.000000 1.000000
vn 0.000000 1.000000 0.000000
vn 0.000000 1.000000 0.000000
vn 0.000000 1.000000 0.000000
vn 0.000000 1.000000 0.000000
vn 0.000000 0.000000 -1.000000
vn 0.000000 0.000000 -1.000000
vn 0.000000 0.000000 -1.000000
vn 0.000000 0.000000 -1.000000
vn 0.000000 -1.000000 0.000000
vn 0.000000 -1.000000 0.000000
vn 0.000000 -1.000000 0.000000
vn 0.000000 -1.000000 0.000000
vn 1.000000 0.000000 0.000000
vn 1.000000 0.000000 0.000000
vn 1.000000 0.000000 0.000000
vn 1.000000 0.000000 0.000000
vn -1.000000 0.000000 0.000000
vn -1.000000 0.000000 0.000000
vn -1.000000 0.000000 0.000000
vn -1.000000 0.000000 0.000000
s off
g pCube3
usemtl initialShadingGroup
f 9/15/25 10/16/26 12/18/27 11/17/28
f 11/17/29 12/18/30 14/20/31 13/19/32
f 13/19/33 14/20/34 16/22/35 15/21/36
f 15/21/37 16/22/38 10/24/39 9/23/40
f 10/16/41 16/25/42 14/26/43 12/18/44
f 15/27/45 9/15/46 11/17/47 13/28/48
g default
v 0.441178 0.904243 0.043574
v 0.439187 0.944863 0.082783
v 0.447407 0.939583 0.039284
v 0.441178 0.970467 -0.009155
v 0.441178 0.981160 0.078927
v 0.449501 0.975814 0.034886
v 0.439187 1.006765 -0.013011
v 0.439187 1.017326 0.073986
v 0.447407 1.012045 0.030487
v 0.433263 1.052469 0.068082
v 0.441178 1.047384 0.026197
v 0.430967 1.080961 0.022121
v 0.439187 0.944863 0.082783
v 0.447407 0.939583 0.039284
v 0.441178 0.904243 0.043574
v 0.441178 0.904243 0.043574
v 0.447407 0.939583 0.039284
v 0.441178 0.981160 0.078927
v 0.439187 0.944863 0.082783
v 0.439187 0.944863 0.082783
v 0.441178 0.981160 0.078927
v 0.449501 0.975814 0.034886
v 0.447407 0.939583 0.039284
v 0.447407 0.939583 0.039284
v 0.449501 0.975814 0.034886
v 0.441178 0.970467 -0.009155
v 0.441178 0.970467 -0.009155
v 0.439187 1.006765 -0.013011
v 0.439187 1.017326 0.073986
v 0.441178 0.981160 0.078927
v 0.441178 0.981160 0.078927
v 0.439187 1.017326 0.073986
v 0.447407 1.012045 0.030487
v 0.449501 0.975814 0.034886
v 0.449501 0.975814 0.034886
v 0.447407 1.012045 0.030487
v 0.439187 1.006765 -0.013011
v 0.441178 0.970467 -0.009155
v 0.433263 1.052469 0.068082
v 0.439187 1.017326 0.073986
v 0.439187 1.017326 0.073986
v 0.433263 1.052469 0.068082
v 0.441178 1.047384 0.026197
v 0.447407 1.012045 0.030487
v 0.447407 1.012045 0.030487
v 0.441178 1.047384 0.026197
v 0.439187 1.006765 -0.013011
v 0.433263 1.052469 0.068082
v 0.430967 1.080961 0.022121
v 0.441178 1.047384 0.026197
v 0.441178 1.047384 0.026197
v 0.430967 1.080961 0.022121
vt 0.950000 0.400000
vt 0.900000 0.450000
vt 0.950000 0.450000
vt 0.000000 0.500000
vt 0.900000 0.500000
vt 0.950000 0.500000
vt 1.000000 0.500000
vt 0.000000 0.550000
vt 0.900000 0.550000
vt 0.950000 0.550000
vt 1.000000 0.550000
vt 0.900000 0.600000
vt 0.950000 0.600000
vt 0.950000 0.650000
vt 0.900000 0.450000
vt 0.950000 0.450000
vt 0.950000 0.400000
vt 0.950000 0.400000
vt 0.950000 0.450000
vt 0.900000 0.500000
vt 0.900000 0.450000
vt 0.900000 0.450000
vt 0.900000 0.500000
vt 0.950000 0.500000
vt 0.950000 0.450000
vt 0.950000 0.450000
vt 0.950000 0.500000
vt 1.000000 0.500000
vt 0.000000 0.500000
vt 0.000000 0.550000
vt 0.900000 0.550000
vt 0.900000 0.500000
vt 0.900000 0.500000
vt 0.900000 0.550000
vt 0.950000 0.550000
vt 0.950000 0.500000
vt 0.950000 0.500000
vt 0.950000 0.550000
vt 1.000000 0.550000
vt 1.000000 0.500000
vt 0.900000 0.600000
vt 0.900000 0.550000
vt 0.900000 0.550000
vt 0.900000 0.600000
vt 0.950000 0.600000
vt 0.950000 0.550000
vt 0.950000 0.550000
vt 0.950000 0.600000
vt 1.000000 0.550000
vt 0.900000 0.600000
vt 0.950000 0.650000
vt 0.950000 0.600000
vt 0.950000 0.600000
vt 0.950000 0.650000
vn -0.981297 0.033692 -0.189527
vn -0.981297 0.033692 -0.189527
vn -0.981297 0.033692 -0.189527
vn -0.981297 0.033692 -0.189527
vn -0.981297 -0.078062 -0.175960
vn -0.981297 -0.078062 -0.175960
vn -0.981297 -0.078062 -0.175960
vn -0.981297 -0.078062 -0.175960
vn -0.981298 -0.033692 0.189525
vn -0.981298 -0.033692 0.189525
vn -0.981298 -0.033692 0.189525
vn -0.981298 -0.033692 0.189525
vn -0.968636 -0.190152 -0.159959
vn -0.968636 -0.190152 -0.159959
vn -0.968636 -0.190152 -0.159959
vn -0.968636 -0.190152 -0.159959
vn 0.000000 0.000000 0.000000
vn 0.000000 0.000000 0.000000
vn 0.000000 0.000000 0.000000
vn 0.000000 0.000000 0.000000
vn 0.000000 0.000000 0.000000
vn 0.000000 0.000000 0.000000
vn 0.000000 0.000000 0.000000
vn 0.000000 0.000000 0.000000
vn 0.000000 0.000000 0.000000
vn 0.000000 0.000000 0.000000
vn 0.000000 0.000000 0.000000
vn 0.000000 0.000000 0.000000
vn 0.000000 0.000000 0.000000
vn 0.000000 0.000000 0.000000
vn 0.000000 0.000000 0.000000
vn 0.000000 0.000000 0.000000
vn 0.000000 0.000000 0.000000
vn 0.000000 0.000000 0.000000
vn 0.000000 0.000000 0.000000
vn 0.000000 0.000000 0.000000
vn 0.000000 0.000000 0.000000
vn 0.000000 0.000000 0.000000
vn 0.000000 0.000000 0.000000
vn 0.000000 0.000000 0.000000
vn 0.000000 0.000000 0.000000
vn 0.000000 0.000000 0.000000
vn 0.000000 0.000000 0.000000
vn 0.000000 0.000000 0.000000
vn 0.000000 0.000000 0.000000
vn 0.000000 0.000000 0.000000
vn 0.000000 0.000000 0.000000
vn 0.000000 0.000000 0.000000
vn 0.000000 0.000000 0.000000
vn 0.000000 0.000000 0.000000
vn 0.000000 0.000000 0.000000
vn 0.000000 0.000000 0.000000
vn 0.000000 0.000000 0.000000
vn 0.000000 0.000000 0.000000
vn 0.000000 0.000000 0.000000
vn 0.000000 0.000000 0.000000
vn 0.000000 0.000000 0.000000
vn 0.000000 0.000000 0.000000
vn 0.000000 0.000000 0.000000
vn 0.000000 0.000000 0.000000
vn 0.000000 0.000000 0.000000
vn 0.000000 0.000000 0.000000
vn 0.000000 0.000000 0.000000
vn 0.000000 0.000000 0.000000
vn 0.000000 0.000000 0.000000
vn 0.000000 0.000000 0.000000
vn 0.000000 0.000000 0.000000
vn 0.000000 0.000000 0.000000
vn 0.000000 0.000000 0.000000
vn 0.000000 0.000000 0.000000
vn 0.000000 0.000000 0.000000
vn 0.000000 0.000000 0.000000
vn 0.000000 0.000000 0.000000
vn 0.000000 0.000000 0.000000
vn 0.000000 0.000000 0.000000
vn 0.000000 0.000000 0.000000
vn 0.000000 0.000000 0.000000
vn 0.000000 0.000000 0.000000
vn 0.000000 0.000000 0.000000
vn 0.000000 0.000000 0.000000
vn 0.000000 0.000000 0.000000
vn 0.000000 0.000000 0.000000
vn 0.000000 0.000000 0.000000
vn 0.000000 0.000000 0.000000
vn 0.000000 0.000000 0.000000
vn 0.000000 0.000000 0.000000
vn 0.000000 0.000000 0.000000
vn 0.000000 0.000000 0.000000
vn 0.000000 0.000000 0.000000
vn 0.000000 0.000000 0.000000
vn 0.000000 0.000000 0.000000
vn 0.000000 0.000000 0.000000
vn 0.000000 0.000000 0.000000
vn 0.000000 0.000000 0.000000
vn 0.000000 0.000000 0.000000
vn 0.000000 0.000000 0.000000
vn 0.000000 0.000000 0.000000
vn 0.000000 0.000000 0.000000
vn 0.000000 0.000000 0.000000
vn 0.000000 0.000000 0.000000
vn 0.000000 0.000000 0.000000
vn 0.000000 0.000000 0.000000
vn 0.000000 0.000000 0.000000
vn 0.000000 0.000000 0.000000
vn 0.000000 0.000000 0.000000
vn 0.000000 0.000000 0.000000
vn 0.000000 0.000000 0.000000
vn 0.000000 0.000000 0.000000
vn 0.000000 0.000000 0.000000
vn 0.000000 0.000000 0.000000
vn 0.000000 0.000000 0.000000
vn 0.000000 0.000000 0.000000
vn 0.000000 0.000000 0.000000
vn 0.000000 0.000000 0.000000
vn 0.000000 0.000000 0.000000
vn 0.000000 0.000000 0.000000
vn 0.000000 0.000000 0.000000
vn 0.000000 0.000000 0.000000
vn 0.000000 0.000000 0.000000
vn 0.000000 0.000000 0.000000
vn 0.000000 0.000000 0.000000
vn 0.000000 0.000000 0.000000
vn 0.000000 0.000000 0.000000
vn 0.000000 0.000000 0.000000
vn 0.000000 0.000000 0.000000
vn 0.000000 0.000000 0.000000
vn 0.000000 0.000000 0.000000
vn 0.000000 0.000000 0.000000
vn 0.000000 0.000000 0.000000
vn 0.000000 0.000000 0.000000
vn 0.000000 0.000000 0.000000
vn 0.000000 0.000000 0.000000
vn 0.000000 0.000000 0.000000
vn 0.000000 0.000000 0.000000
vn 0.000000 0.000000 0.000000
vn 0.000000 0.000000 0.000000
s off
g pSphere1
usemtl initialShadingGroup
f 36/30/49 37/33/50 38/34/51 39/31/52
f 47/33/53 48/37/54 49/38/55 50/34/56
f 51/34/57 52/38/58 53/39/59 54/35/60
f 57/37/61 58/40/62 59/41/63 60/38/64
f 18/30/65 19/31/66 30/44/67 29/43/68
f 19/31/69 17/29/70 31/45/71 30/44/72
f 17/29/73 19/31/74 33/47/75 32/46/76
f 21/33/77 18/30/78 35/49/79 34/48/80
f 18/30/81 21/33/82 37/51/83 36/50/84
f 21/33/85 22/34/86 38/52/87 37/51/88
f 22/34/89 19/31/90 39/53/91 38/52/92
f 19/31/93 18/30/94 36/50/95 39/53/96
f 19/31/97 22/34/98 41/55/99 40/54/100
f 22/34/101 20/35/102 42/56/103 41/55/104
f 20/32/105 23/36/106 44/58/107 43/57/108
f 24/37/109 21/33/110 46/60/111 45/59/112
f 21/33/113 24/37/114 48/62/115 47/61/116
f 24/37/117 25/38/118 49/63/119 48/62/120
f 25/38/121 22/34/122 50/64/123 49/63/124
f 22/34/125 21/33/126 47/61/127 50/64/128
f 22/34/129 25/38/130 52/66/131 51/65/132
f 25/38/133 23/39/134 53/67/135 52/66/136
f 23/39/137 20/35/138 54/68/139 53/67/140
f 20/35/141 22/34/142 51/65/143 54/68/144
f 26/40/145 24/37/146 56/70/147 55/69/148
f 24/37/149 26/40/150 58/72/151 57/71/152
f 26/40/153 27/41/154 59/73/155 58/72/156
f 27/41/157 25/38/158 60/74/159 59/73/160
f 25/38/161 24/37/162 57/71/163 60/74/164
f 25/38/165 27/41/166 62/76/167 61/75/168
f 23/39/169 25/38/170 61/75/171 63/77/172
f 28/42/173 27/41/174 66/80/175 65/79/176
f 27/41/177 26/40/178 64/78/179 66/80/180
f 27/41/181 28/42/182 68/82/183 67/81/184
g default
v 0.447407 0.939583 0.039284
v 0.441178 0.981160 0.078927
v 0.449501 0.975814 0.034886
v 0.447407 1.012045 0.030487
v 0.441178 1.047384 0.026197
v 0.441178 0.981160 0.078927
v 0.449501 0.975814 0.034886
v 0.447407 0.939583 0.039284
v 0.447407 0.939583 0.039284
v 0.449501 0.975814 0.034886
v 0.441178 0.981160 0.078927
v 0.447407 1.012045 0.030487
v 0.449501 0.975814 0.034886
v 0.449501 0.975814 0.034886
v 0.447407 1.012045 0.030487
v 0.441178 1.047384 0.026197
v 0.447407 1.012045 0.030487
v 0.447407 1.012045 0.030487
v 0.441178 1.047384 0.026197
vt 0.950000 0.450000
vt 0.900000 0.500000
vt 0.950000 0.500000
vt 0.950000 0.550000
vt 0.950000 0.600000
vt 0.900000 0.500000
vt 0.950000 0.500000
vt 0.950000 0.450000
vt 0.950000 0.450000
vt 0.950000 0.500000
vt 0.900000 0.500000
vt 0.950000 0.550000
vt 0.950000 0.500000
vt 0.950000 0.500000
vt 0.950000 0.550000
vt 0.950000 0.600000
vt 0.950000 0.550000
vt 0.950000 0.550000
vt 0.950000 0.600000
vn 0.000000 0.000000 0.000000
vn 0.000000 0.000000 0.000000
vn 0.000000 0.000000 0.000000
vn 0.000000 0.000000 0.000000
vn 0.000000 0.000000 0.000000
vn 0.000000 0.000000 0.000000
vn 0.000000 0.000000 0.000000
vn 0.000000 0.000000 0.000000
vn 0.000000 0.000000 0.000000
vn 0.000000 0.000000 0.000000
vn 0.000000 0.000000 0.000000
vn 0.000000 0.000000 0.000000
vn 0.000000 0.000000 0.000000
vn 0.000000 0.000000 0.000000
vn 0.000000 0.000000 0.000000
vn 0.000000 0.000000 0.000000
vn 0.000000 0.000000 0.000000
vn 0.000000 0.000000 0.000000
vn 0.000000 0.000000 0.000000
vn 0.000000 0.000000 0.000000
vn 0.000000 0.000000 0.000000
vn 0.000000 0.000000 0.000000
vn 0.000000 0.000000 0.000000
vn 0.000000 0.000000 0.000000
vn 0.000000 0.000000 0.000000
vn 0.000000 0.000000 0.000000
vn 0.000000 0.000000 0.000000
vn 0.000000 0.000000 0.000000
vn 0.000000 0.000000 0.000000
vn 0.000000 0.000000 0.000000
vn 0.000000 0.000000 0.000000
vn 0.000000 0.000000 0.000000
s off
g pasted__pSphere1 group2
usemtl initialShadingGroup
f 70/84/185 71/85/186 75/89/187 74/88/188
f 71/85/189 69/83/190 76/90/191 75/89/192
f 69/83/193 71/85/194 78/92/195 77/91/196
f 72/86/197 71/85/198 81/95/199 80/94/200
f 71/85/201 70/84/202 79/93/203 81/95/204
f 71/85/205 72/86/206 83/97/207 82/96/208
f 73/87/209 72/86/210 85/99/211 84/98/212
f 72/86/213 73/87/214 87/101/215 86/100/216
