# 3ds Max Wavefront OBJ Exporter v0.97b - (c)2007 guruware
# File Created: 20.08.2018 14:56:30

mtllib feather0001.mtl

#
# object obj0
#

v  0.0120 0.0550 -0.0084
v  0.0124 0.0530 -0.0087
v  0.0143 0.0520 -0.0095
v  0.0129 0.0575 -0.0089
v  0.0174 0.0520 -0.0110
v  0.0201 0.0545 -0.0123
v  0.0147 0.0630 -0.0097
v  0.0256 0.0570 -0.0148
v  0.0314 0.0620 -0.0176
v  0.0165 0.0675 -0.0106
v  0.0192 0.0720 -0.0119
v  0.0228 0.0780 -0.0136
v  0.0351 0.0655 -0.0193
v  0.0265 0.0840 -0.0153
v  0.0851 0.1120 -0.0429
v  0.0819 0.1120 -0.0414
v  0.0769 0.1030 -0.0391
v  0.0871 0.1410 -0.0438
v  0.0843 0.1425 -0.0426
v  0.0884 0.1385 -0.0445
v  0.0803 0.1425 -0.0407
v  0.0753 0.1400 -0.0383
v  0.0898 0.1350 -0.0451
v  0.0900 0.1295 -0.0453
v  0.0708 0.1375 -0.0362
v  0.0658 0.1335 -0.0338
v  0.0391 0.1035 -0.0212
v  0.0373 0.1030 -0.0204
v  0.0360 0.1000 -0.0197
v  0.0851 0.1135 -0.0429
v  0.0882 0.1200 -0.0444
v  0.0414 0.0715 -0.0223
v  0.0432 0.0740 -0.0232
v  0.0378 0.0700 -0.0206
v  0.0292 0.0880 -0.0165
v  0.0328 0.0960 -0.0183
v  0.0896 0.1255 -0.0450
v  0.0608 0.1295 -0.0315
v  0.0724 0.0995 -0.0369
v  0.0577 0.1260 -0.0300
v  0.0550 0.1240 -0.0287
v  0.0527 0.1205 -0.0276
v  0.0495 0.1140 -0.0261
v  0.0692 0.0980 -0.0354
v  0.0631 0.0930 -0.0325
v  0.0604 0.0900 -0.0313
v  0.0450 0.1115 -0.0240
v  0.0427 0.1100 -0.0229
v  0.0405 0.1070 -0.0219
v  0.0482 0.1125 -0.0255
v  0.0586 0.0875 -0.0304
v  0.0550 0.0845 -0.0287
v  0.0518 0.0805 -0.0272
v  0.0486 0.0780 -0.0257
v  0.0450 0.0765 -0.0240
v  0.0355 0.0675 -0.0195
v  0.0700 0.1220 -0.0344
v  0.0598 0.1145 -0.0301
v  0.0600 0.1145 -0.0297
v  0.0698 0.1220 -0.0348
v  0.0675 0.1195 -0.0338
v  0.0677 0.1195 -0.0333
v  0.0576 0.1105 -0.0291
v  0.0578 0.1105 -0.0286
v  0.0499 0.1035 -0.0254
v  0.0501 0.1035 -0.0250
v  0.0408 0.0940 -0.0212
v  0.0410 0.0940 -0.0207
v  0.0354 0.0870 -0.0186
v  0.0356 0.0870 -0.0182
v  0.0309 0.0810 -0.0165
v  0.0311 0.0810 -0.0160
v  0.0255 0.0730 -0.0139
v  0.0257 0.0730 -0.0135
v  0.0205 0.0650 -0.0116
v  0.0207 0.0650 -0.0111
v  0.0169 0.0575 -0.0099
v  0.0171 0.0575 -0.0094
v  0.0123 0.0490 -0.0077
v  0.0126 0.0490 -0.0073
v  0.0069 0.0380 -0.0052
v  0.0071 0.0380 -0.0047
v  0.0038 0.0310 -0.0037
v  0.0040 0.0310 -0.0032
v  0.0001 0.0240 -0.0020
v  0.0003 0.0240 -0.0015
v  -0.0039 0.0150 -0.0001
v  -0.0037 0.0150 0.0004
v  -0.0076 0.0070 0.0016
v  -0.0073 0.0070 0.0021
v  -0.0103 0.0020 0.0029
v  -0.0101 0.0020 0.0034
v  -0.0125 0.0010 0.0040
v  -0.0123 0.0010 0.0044
v  -0.0114 0.0035 0.0040
v  -0.0116 0.0035 0.0036
v  -0.0096 0.0070 0.0032
v  -0.0098 0.0070 0.0027
v  -0.0046 0.0190 0.0008
v  -0.0048 0.0190 0.0004
v  0.0017 0.0330 -0.0022
v  0.0015 0.0330 -0.0026
v  0.0094 0.0490 -0.0058
v  0.0092 0.0490 -0.0062
v  0.0162 0.0610 -0.0090
v  0.0160 0.0610 -0.0094
v  0.0225 0.0715 -0.0120
v  0.0223 0.0715 -0.0124
v  0.0325 0.0860 -0.0167
v  0.0322 0.0860 -0.0171
v  0.0404 0.0955 -0.0210
v  0.0406 0.0955 -0.0205
v  0.0503 0.1060 -0.0257
v  0.0505 0.1060 -0.0252
v  -0.0101 0.0022 0.0036
v  -0.0112 0.0034 0.0041
v  -0.0119 0.0014 0.0045
v  -0.0094 0.0069 0.0033
v  -0.0074 0.0071 0.0024
v  -0.0038 0.0151 0.0007
v  -0.0044 0.0189 0.0009
v  0.0003 0.0241 -0.0013
v  0.0020 0.0329 -0.0021
v  0.0039 0.0311 -0.0030
v  0.0071 0.0381 -0.0045
v  0.0096 0.0489 -0.0057
v  0.0125 0.0491 -0.0070
v  0.0170 0.0576 -0.0092
v  0.0164 0.0609 -0.0089
v  0.0206 0.0651 -0.0109
v  0.0227 0.0714 -0.0119
v  0.0256 0.0731 -0.0132
v  0.0310 0.0811 -0.0158
v  0.0327 0.0859 -0.0166
v  0.0356 0.0871 -0.0179
v  0.0408 0.0954 -0.0204
v  0.0410 0.0941 -0.0205
v  0.0501 0.1036 -0.0247
v  0.0508 0.1058 -0.0251
v  0.0578 0.1107 -0.0284
v  0.0602 0.1143 -0.0295
v  0.0677 0.1196 -0.0331
v  0.0686 0.1206 -0.0335
v  -0.0116 0.0034 0.0033
v  -0.0105 0.0022 0.0028
v  -0.0123 0.0014 0.0036
v  -0.0097 0.0069 0.0024
v  -0.0078 0.0071 0.0015
v  -0.0042 0.0151 -0.0002
v  -0.0048 0.0189 0.0001
v  -0.0001 0.0241 -0.0021
v  0.0016 0.0329 -0.0029
v  0.0035 0.0311 -0.0038
v  0.0067 0.0381 -0.0053
v  0.0092 0.0489 -0.0065
v  0.0121 0.0491 -0.0079
v  0.0166 0.0576 -0.0100
v  0.0160 0.0609 -0.0097
v  0.0202 0.0651 -0.0117
v  0.0223 0.0714 -0.0127
v  0.0252 0.0731 -0.0140
v  0.0307 0.0811 -0.0166
v  0.0323 0.0859 -0.0174
v  0.0352 0.0871 -0.0187
v  0.0404 0.0954 -0.0212
v  0.0406 0.0941 -0.0213
v  0.0497 0.1036 -0.0256
v  0.0504 0.1058 -0.0259
v  0.0574 0.1107 -0.0292
v  0.0598 0.1143 -0.0304
v  0.0682 0.1206 -0.0343
v  0.0673 0.1196 -0.0339
# 172 vertices

vn 0.4266 0.0000 0.9044
vn 0.4266 -0.0000 0.9044
vn 0.8167 0.5477 0.1818
vn -0.6578 0.7476 -0.0912
vn -0.3480 0.7476 0.5656
vn 0.3791 0.5477 -0.7458
vn 0.4110 -0.6910 -0.5946
vn 0.7202 -0.6910 0.0611
vn 0.3777 -0.7192 -0.5831
vn 0.6902 -0.7192 0.0794
vn 0.3995 -0.6961 -0.5966
vn 0.7145 -0.6961 0.0711
vn 0.4509 -0.6398 -0.6224
vn 0.7671 -0.6398 0.0479
vn 0.4862 -0.6005 -0.6347
vn 0.7991 -0.6005 0.0285
vn 0.5025 -0.5767 -0.6441
vn 0.8167 -0.5767 0.0220
vn 0.5262 -0.5425 -0.6549
vn 0.8400 -0.5425 0.0105
vn 0.5594 -0.4823 -0.6741
vn 0.8760 -0.4823 -0.0030
vn 0.5792 -0.4553 -0.6762
vn 0.8902 -0.4553 -0.0169
vn 0.5751 -0.4585 -0.6775
vn 0.8886 -0.4585 -0.0129
vn 0.5887 -0.4307 -0.6841
vn 0.9023 -0.4307 -0.0192
vn 0.5874 -0.4395 -0.6795
vn 0.8980 -0.4395 -0.0211
vn 0.5842 -0.4387 -0.6829
vn 0.8985 -0.4387 -0.0164
vn 0.5966 -0.4162 -0.6862
vn 0.9090 -0.4162 -0.0239
vn 0.5837 -0.4483 -0.6770
vn 0.8936 -0.4483 -0.0198
vn 0.3974 -0.7120 -0.5789
vn 0.6995 -0.7120 0.0615
vn -0.7620 -0.6350 -0.1271
vn -0.3865 -0.6350 0.6689
vn -0.6054 0.4054 0.6850
vn -0.9136 0.4054 0.0315
vn -0.5896 0.4244 0.6872
vn -0.9053 0.4244 0.0180
vn -0.6039 0.4022 0.6882
vn -0.9151 0.4022 0.0283
vn -0.5926 0.4266 0.6832
vn -0.9042 0.4266 0.0227
vn -0.5747 0.4657 0.6729
vn -0.8848 0.4657 0.0154
vn -0.5517 0.5050 0.6638
vn -0.8631 0.5050 0.0036
vn -0.5312 0.5401 0.6528
vn -0.8416 0.5401 -0.0053
vn -0.4883 0.6031 0.6308
vn -0.7973 0.6031 -0.0244
vn -0.7521 0.6573 -0.0479
vn -0.4414 0.6573 0.6109
vn -0.7114 0.6997 -0.0659
vn -0.4016 0.6997 0.5909
vn 0.6450 -0.3429 0.6829
vn 0.0520 0.1796 0.9824
vn 0.1954 -0.2300 0.9534
vn 0.0798 0.1778 0.9808
vn 0.7124 -0.1959 0.6739
vn 0.7140 -0.1785 0.6770
vn 0.0620 0.1740 0.9828
vn 0.7057 -0.1855 0.6838
vn 0.0677 0.1841 0.9806
vn 0.7130 -0.1911 0.6747
vn 0.7087 -0.1831 0.6813
vn 0.0714 0.2032 0.9765
vn 0.7031 -0.1950 0.6838
vn 0.7087 -0.1973 0.6774
vn 0.0849 0.2182 0.9722
vn 0.6923 -0.2008 0.6931
vn 0.0911 0.2351 0.9677
vn 0.6819 -0.2302 0.6943
vn 0.6714 -0.2441 0.6998
vn 0.1061 0.2655 0.9583
vn 0.6661 -0.2567 0.7003
vn 0.1310 0.2854 0.9494
vn 0.6475 -0.2671 0.7137
vn 0.6271 -0.2931 0.7217
vn 0.1461 0.3061 0.9407
vn 0.6200 -0.3082 0.7215
vn 0.1695 0.3271 0.9297
vn 0.6377 -0.3035 0.7080
vn 0.4911 0.0609 0.8690
vn -0.7250 0.1796 -0.6649
vn -0.1168 -0.3429 -0.9321
vn -0.6114 -0.2300 -0.7572
vn -0.7061 0.1778 -0.6854
vn -0.0669 -0.1959 -0.9783
vn -0.0683 -0.1785 -0.9816
vn -0.7190 0.1740 -0.6729
vn -0.0788 -0.1855 -0.9795
vn -0.7136 0.1841 -0.6759
vn -0.0672 -0.1911 -0.9793
vn -0.0750 -0.1830 -0.9802
vn -0.7081 0.2032 -0.6762
vn -0.0805 -0.1950 -0.9775
vn -0.0720 -0.1973 -0.9777
vn -0.6962 0.2182 -0.6839
vn -0.0946 -0.2008 -0.9751
vn -0.6888 0.2351 -0.6858
vn -0.1021 -0.2302 -0.9678
vn -0.1130 -0.2441 -0.9631
vn -0.6720 0.2655 -0.6913
vn -0.1167 -0.2567 -0.9594
vn -0.6493 0.2854 -0.7050
vn -0.1390 -0.2671 -0.9536
vn -0.1580 -0.2931 -0.9429
vn -0.6330 0.3061 -0.7111
vn -0.2604 -0.2030 -0.9439
vn -0.6096 0.3271 -0.7221
vn -0.3582 0.0609 -0.9317
vn -0.1408 -0.3035 -0.9424
vn 0.1285 -0.5665 -0.8140
# 119 vertex normals

vt 0.2500 0.3836 0.0000
vt 0.2542 0.3699 0.0000
vt 0.2712 0.3630 0.0000
vt 0.2585 0.4007 0.0000
vt 0.3008 0.3630 0.0000
vt 0.3263 0.3801 0.0000
vt 0.2754 0.4384 0.0000
vt 0.3771 0.3973 0.0000
vt 0.4322 0.4315 0.0000
vt 0.2924 0.4692 0.0000
vt 0.3178 0.5000 0.0000
vt 0.3517 0.5411 0.0000
vt 0.4661 0.4555 0.0000
vt 0.3856 0.5822 0.0000
vt 0.9347 0.7740 0.0000
vt 0.9051 0.7740 0.0000
vt 0.8585 0.7123 0.0000
vt 0.9534 0.9726 0.0000
vt 0.9280 0.9829 0.0000
vt 0.9661 0.9555 0.0000
vt 0.8898 0.9829 0.0000
vt 0.8432 0.9658 0.0000
vt 0.9788 0.9315 0.0000
vt 0.9814 0.8938 0.0000
vt 0.8008 0.9486 0.0000
vt 0.7542 0.9212 0.0000
vt 0.5042 0.7158 0.0000
vt 0.4873 0.7123 0.0000
vt 0.4746 0.6918 0.0000
vt 0.9347 0.7842 0.0000
vt 0.9644 0.8288 0.0000
vt 0.5254 0.4966 0.0000
vt 0.5424 0.5137 0.0000
vt 0.4915 0.4863 0.0000
vt 0.4110 0.6096 0.0000
vt 0.4449 0.6644 0.0000
vt 0.9771 0.8664 0.0000
vt 0.7076 0.8938 0.0000
vt 0.8161 0.6884 0.0000
vt 0.6780 0.8699 0.0000
vt 0.6525 0.8562 0.0000
vt 0.6314 0.8322 0.0000
vt 0.6017 0.7877 0.0000
vt 0.7864 0.6781 0.0000
vt 0.7288 0.6438 0.0000
vt 0.7034 0.6233 0.0000
vt 0.5593 0.7705 0.0000
vt 0.5381 0.7603 0.0000
vt 0.5169 0.7397 0.0000
vt 0.5890 0.7774 0.0000
vt 0.6864 0.6062 0.0000
vt 0.6525 0.5856 0.0000
vt 0.6229 0.5582 0.0000
vt 0.5932 0.5411 0.0000
vt 0.5593 0.5308 0.0000
vt 0.4703 0.4692 0.0000
vt 0.7881 0.8425 0.0000
vt 0.6949 0.7911 0.0000
vt 0.7669 0.8253 0.0000
vt 0.6737 0.7637 0.0000
vt 0.6017 0.7158 0.0000
vt 0.5169 0.6507 0.0000
vt 0.4661 0.6027 0.0000
vt 0.4237 0.5616 0.0000
vt 0.3729 0.5068 0.0000
vt 0.3263 0.4521 0.0000
vt 0.2924 0.4007 0.0000
vt 0.2500 0.3425 0.0000
vt 0.1992 0.2671 0.0000
vt 0.1695 0.2192 0.0000
vt 0.1356 0.1712 0.0000
vt 0.0975 0.1096 0.0000
vt 0.0636 0.0548 0.0000
vt 0.0381 0.0205 0.0000
vt 0.0169 0.0137 0.0000
vt 0.0254 0.0308 0.0000
vt 0.0424 0.0548 0.0000
vt 0.0890 0.1370 0.0000
vt 0.1483 0.2329 0.0000
vt 0.2203 0.3425 0.0000
vt 0.2839 0.4247 0.0000
vt 0.3432 0.4966 0.0000
vt 0.4364 0.5959 0.0000
vt 0.5127 0.6610 0.0000
vt 0.6059 0.7329 0.0000
vt 0.0370 0.0216 0.0000
vt 0.0270 0.0302 0.0000
vt 0.0200 0.0162 0.0000
vt 0.0439 0.0542 0.0000
vt 0.0621 0.0555 0.0000
vt 0.0959 0.1102 0.0000
vt 0.0905 0.1364 0.0000
vt 0.1341 0.1719 0.0000
vt 0.1498 0.2322 0.0000
vt 0.1680 0.2198 0.0000
vt 0.1977 0.2678 0.0000
vt 0.2218 0.3418 0.0000
vt 0.2485 0.3431 0.0000
vt 0.2909 0.4014 0.0000
vt 0.2853 0.4239 0.0000
vt 0.3248 0.4528 0.0000
vt 0.3446 0.4958 0.0000
vt 0.3715 0.5076 0.0000
vt 0.4224 0.5625 0.0000
vt 0.4377 0.5950 0.0000
vt 0.4648 0.6036 0.0000
vt 0.5139 0.6600 0.0000
vt 0.5157 0.6516 0.0000
vt 0.6006 0.7168 0.0000
vt 0.6071 0.7318 0.0000
vt 0.6727 0.7648 0.0000
vt 0.6959 0.7900 0.0000
vt 0.7658 0.8264 0.0000
vt 0.7742 0.8331 0.0000
vt 0.6727 0.7617 0.0000
# 115 texture coords

o obj0
g obj0
usemtl feder3
s 1
f 1/1/1 2/2/1 3/3/2 
f 4/4/2 1/1/1 3/3/2 
f 5/5/1 4/4/2 3/3/2 
f 6/6/2 4/4/2 5/5/1 
f 7/7/1 4/4/2 6/6/2 
f 8/8/2 7/7/1 6/6/2 
f 9/9/2 7/7/1 8/8/2 
f 10/10/1 7/7/1 9/9/2 
f 11/11/2 10/10/1 9/9/2 
f 12/12/1 11/11/2 9/9/2 
f 13/13/2 12/12/1 9/9/2 
f 14/14/1 12/12/1 13/13/2 
f 15/15/1 16/16/1 17/17/2 
f 18/18/1 19/19/1 20/20/2 
f 19/19/1 21/21/1 20/20/2 
f 21/21/1 22/22/2 20/20/2 
f 20/20/2 22/22/2 23/23/1 
f 23/23/1 22/22/2 24/24/1 
f 22/22/2 25/25/1 24/24/1 
f 25/25/1 26/26/1 24/24/1 
f 27/27/1 28/28/1 29/29/1 
f 30/30/1 31/31/2 16/16/1 
f 32/32/1 33/33/1 34/34/2 
f 35/35/2 14/14/1 13/13/2 
f 36/36/2 35/35/2 13/13/2 
f 24/24/1 26/26/1 37/37/1 
f 37/37/1 26/26/1 31/31/2 
f 31/31/2 26/26/1 16/16/1 
f 16/16/1 26/26/1 17/17/2 
f 26/26/1 38/38/2 17/17/2 
f 17/17/2 38/38/2 39/39/1 
f 38/38/2 40/40/2 39/39/1 
f 40/40/2 41/41/1 42/42/1 
f 40/40/2 42/42/1 39/39/1 
f 42/42/1 43/43/2 39/39/1 
f 39/39/1 43/43/2 44/44/1 
f 44/44/1 43/43/2 45/45/2 
f 45/45/2 43/43/2 46/46/1 
f 47/47/1 48/48/1 49/49/1 
f 50/50/2 47/47/1 49/49/1 
f 50/50/2 49/49/1 27/27/1 
f 29/29/1 36/36/2 13/13/2 
f 46/46/1 43/43/2 51/51/2 
f 51/51/2 43/43/2 52/52/2 
f 52/52/2 43/43/2 53/53/2 
f 54/54/2 53/53/2 55/55/2 
f 53/53/2 43/43/2 55/55/2 
f 33/33/1 55/55/2 34/34/2 
f 55/55/2 43/43/2 34/34/2 
f 27/27/1 29/29/1 13/13/2 
f 34/34/2 43/43/2 56/56/1 
f 43/43/2 50/50/2 56/56/1 
f 50/50/2 27/27/1 56/56/1 
f 56/56/1 27/27/1 13/13/2 
s 3
f 57/57/3 58/58/4 59/58/5 
f 57/57/3 60/57/6 58/58/4 
s 12
f 61/59/7 57/57/3 62/59/8 
s 20
f 60/57/6 57/57/3 61/59/7 
s 36
f 63/60/9 62/59/8 64/60/10 
f 61/59/7 62/59/8 63/60/9 
s 5
f 65/61/11 64/60/10 66/61/12 
f 63/60/9 64/60/10 65/61/11 
s 1
f 67/62/13 66/61/12 68/62/14 
f 65/61/11 66/61/12 67/62/13 
f 69/63/15 68/62/14 70/63/16 
f 67/62/13 68/62/14 69/63/15 
f 71/64/17 70/63/16 72/64/18 
f 69/63/15 70/63/16 71/64/17 
f 73/65/19 72/64/18 74/65/20 
f 71/64/17 72/64/18 73/65/19 
f 75/66/21 74/65/20 76/66/22 
f 73/65/19 74/65/20 75/66/21 
f 77/67/23 76/66/22 78/67/24 
f 75/66/21 76/66/22 77/67/23 
f 79/68/25 78/67/24 80/68/26 
f 77/67/23 78/67/24 79/68/25 
f 81/69/27 80/68/26 82/69/28 
f 79/68/25 80/68/26 81/69/27 
f 83/70/29 82/69/28 84/70/30 
f 81/69/27 82/69/28 83/70/29 
f 85/71/31 84/70/30 86/71/32 
f 83/70/29 84/70/30 85/71/31 
f 87/72/33 86/71/32 88/72/34 
f 85/71/31 86/71/32 87/72/33 
f 89/73/35 88/72/34 90/73/36 
f 87/72/33 88/72/34 89/73/35 
f 91/74/37 90/73/36 92/74/38 
f 89/73/35 90/73/36 91/74/37 
f 93/75/39 92/74/38 94/75/40 
f 91/74/37 92/74/38 93/75/39 
f 95/76/41 93/75/39 94/75/40 
f 95/76/41 96/76/42 93/75/39 
f 97/77/43 96/76/42 95/76/41 
f 97/77/43 98/77/44 96/76/42 
f 99/78/45 98/77/44 97/77/43 
f 99/78/45 100/78/46 98/77/44 
f 101/79/47 100/78/46 99/78/45 
f 101/79/47 102/79/48 100/78/46 
f 103/80/49 102/79/48 101/79/47 
f 103/80/49 104/80/50 102/79/48 
f 105/81/51 104/80/50 103/80/49 
f 105/81/51 106/81/52 104/80/50 
f 107/82/53 106/81/52 105/81/51 
f 107/82/53 108/82/54 106/81/52 
f 109/83/55 108/82/54 107/82/53 
f 109/83/55 110/83/56 108/82/54 
f 111/84/57 110/83/56 109/83/55 
f 112/84/58 111/84/57 109/83/55 
f 113/85/59 111/84/57 112/84/58 
f 114/85/60 113/85/59 112/84/58 
s 65
f 59/58/5 113/85/59 114/85/60 
f 59/58/5 58/58/4 113/85/59 
s 1
f 115/86/61 116/87/62 117/88/63 
f 118/89/64 116/87/62 115/86/61 
f 119/90/65 118/89/64 115/86/61 
f 119/90/65 120/91/66 118/89/64 
f 120/91/66 121/92/67 118/89/64 
f 122/93/68 121/92/67 120/91/66 
f 122/93/68 123/94/69 121/92/67 
f 124/95/70 123/94/69 122/93/68 
f 125/96/71 123/94/69 124/95/70 
f 125/96/71 126/97/72 123/94/69 
f 127/98/73 126/97/72 125/96/71 
f 127/98/73 128/99/74 126/97/72 
f 128/99/74 129/100/75 126/97/72 
f 130/101/76 129/100/75 128/99/74 
f 130/101/76 131/102/77 129/100/75 
f 132/103/78 131/102/77 130/101/76 
f 132/103/78 133/104/79 131/102/77 
f 133/104/79 134/105/80 131/102/77 
f 135/106/81 134/105/80 133/104/79 
f 135/106/81 136/107/82 134/105/80 
f 137/108/83 136/107/82 135/106/81 
f 138/109/84 136/107/82 137/108/83 
f 138/109/84 139/110/85 136/107/82 
s 5
f 140/111/86 139/110/85 138/109/84 
s 101
f 140/111/86 141/112/87 139/110/85 
s 96
f 142/113/88 143/114/89 141/112/87 
s 101
f 142/113/88 141/112/87 140/111/86 
s 1
f 144/87/90 145/86/91 146/88/92 
f 144/87/90 147/89/93 145/86/91 
f 147/89/93 148/90/94 145/86/91 
f 149/91/95 148/90/94 147/89/93 
f 150/92/96 149/91/95 147/89/93 
f 150/92/96 151/93/97 149/91/95 
f 152/94/98 151/93/97 150/92/96 
f 152/94/98 153/95/99 151/93/97 
f 152/94/98 154/96/100 153/95/99 
f 155/97/101 154/96/100 152/94/98 
f 155/97/101 156/98/102 154/96/100 
f 157/99/103 156/98/102 155/97/101 
f 158/100/104 157/99/103 155/97/101 
f 158/100/104 159/101/105 157/99/103 
f 160/102/106 159/101/105 158/100/104 
f 160/102/106 161/103/107 159/101/105 
f 162/104/108 161/103/107 160/102/106 
f 163/105/109 162/104/108 160/102/106 
f 163/105/109 164/106/110 162/104/108 
f 165/107/111 164/106/110 163/105/109 
f 165/107/111 166/108/112 164/106/110 
f 165/107/111 167/109/113 166/108/112 
f 168/110/114 167/109/113 165/107/111 
f 168/110/114 169/111/115 167/109/113 
s 73
f 170/112/116 169/111/115 168/110/114 
s 72
f 171/114/117 172/113/118 170/112/116 
s 73
f 170/112/116 172/113/118 169/111/115 
s 194
f 143/114/89 59/58/5 141/112/87 
s 321
f 143/114/89 57/57/3 59/58/5 
s 424
f 143/114/89 142/113/88 62/59/8 
s 440
f 57/57/3 143/114/89 62/59/8 
s 36
f 62/59/8 140/111/86 64/60/10 
f 62/59/8 142/113/88 140/111/86 
s 5
f 64/60/10 138/109/84 66/61/12 
f 64/60/10 140/111/86 138/109/84 
s 1
f 66/61/12 137/108/83 68/62/14 
f 66/61/12 138/109/84 137/108/83 
f 68/62/14 135/106/81 70/63/16 
f 68/62/14 137/108/83 135/106/81 
f 70/63/16 133/104/79 72/64/18 
f 70/63/16 135/106/81 133/104/79 
f 72/64/18 132/103/78 74/65/20 
f 72/64/18 133/104/79 132/103/78 
f 74/65/20 130/101/76 76/66/22 
f 74/65/20 132/103/78 130/101/76 
f 76/66/22 128/99/74 78/67/24 
f 76/66/22 130/101/76 128/99/74 
f 78/67/24 127/98/73 80/68/26 
f 78/67/24 128/99/74 127/98/73 
f 80/68/26 125/96/71 82/69/28 
f 80/68/26 127/98/73 125/96/71 
f 82/69/28 124/95/70 84/70/30 
f 82/69/28 125/96/71 124/95/70 
f 84/70/30 122/93/68 86/71/32 
f 84/70/30 124/95/70 122/93/68 
f 86/71/32 120/91/66 88/72/34 
f 86/71/32 122/93/68 120/91/66 
f 88/72/34 119/90/65 90/73/36 
f 88/72/34 120/91/66 119/90/65 
f 90/73/36 115/86/61 92/74/38 
f 90/73/36 119/90/65 115/86/61 
f 92/74/38 117/88/63 94/75/40 
f 92/74/38 115/86/61 117/88/63 
f 117/88/63 95/76/41 94/75/40 
f 116/87/62 95/76/41 117/88/63 
f 97/77/43 95/76/41 116/87/62 
f 118/89/64 97/77/43 116/87/62 
f 99/78/45 97/77/43 118/89/64 
f 121/92/67 99/78/45 118/89/64 
f 101/79/47 99/78/45 121/92/67 
f 123/94/69 101/79/47 121/92/67 
f 103/80/49 101/79/47 123/94/69 
f 126/97/72 103/80/49 123/94/69 
f 105/81/51 103/80/49 126/97/72 
f 129/100/75 105/81/51 126/97/72 
f 107/82/53 105/81/51 129/100/75 
f 131/102/77 107/82/53 129/100/75 
f 109/83/55 107/82/53 131/102/77 
f 134/105/80 109/83/55 131/102/77 
f 112/84/58 109/83/55 134/105/80 
f 136/107/82 112/84/58 134/105/80 
f 114/85/60 112/84/58 136/107/82 
f 139/110/85 114/85/60 136/107/82 
s 65
f 59/58/5 114/85/60 139/110/85 
f 141/112/87 59/58/5 139/110/85 
s 524
f 171/114/117 60/57/6 61/59/7 
s 1036
f 172/113/118 171/114/117 61/59/7 
s 1602
f 58/58/4 171/114/117 170/112/116 
f 60/57/6 171/114/117 58/58/4 
s 73
f 113/85/59 170/112/116 168/110/114 
s 65
f 58/58/4 170/112/116 113/85/59 
s 1
f 111/84/57 168/110/114 165/107/111 
f 113/85/59 168/110/114 111/84/57 
f 110/83/56 165/107/111 163/105/109 
f 111/84/57 165/107/111 110/83/56 
f 108/82/54 163/105/109 160/102/106 
f 110/83/56 163/105/109 108/82/54 
f 106/81/52 160/102/106 158/100/104 
f 108/82/54 160/102/106 106/81/52 
f 104/80/50 158/100/104 155/97/101 
f 106/81/52 158/100/104 104/80/50 
f 102/79/48 155/97/101 152/94/98 
f 104/80/50 155/97/101 102/79/48 
f 100/78/46 152/94/98 150/92/96 
f 102/79/48 152/94/98 100/78/46 
f 98/77/44 150/92/96 147/89/93 
f 100/78/46 150/92/96 98/77/44 
f 96/76/42 147/89/93 144/87/90 
f 98/77/44 147/89/93 96/76/42 
f 96/76/42 146/88/92 93/75/39 
f 96/76/42 144/87/90 146/88/92 
f 146/88/92 91/74/37 93/75/39 
f 145/86/91 91/74/37 146/88/92 
f 145/86/91 89/73/35 91/74/37 
f 148/90/94 89/73/35 145/86/91 
f 149/91/95 87/72/33 89/73/35 
f 148/90/94 149/91/95 89/73/35 
f 151/93/97 85/71/31 87/72/33 
f 149/91/95 151/93/97 87/72/33 
f 153/95/99 83/70/29 85/71/31 
f 151/93/97 153/95/99 85/71/31 
f 154/96/100 81/69/27 83/70/29 
f 153/95/99 154/96/100 83/70/29 
f 156/98/102 79/68/25 81/69/27 
f 154/96/100 156/98/102 81/69/27 
f 157/99/103 77/67/23 79/68/25 
f 156/98/102 157/99/103 79/68/25 
f 159/101/105 75/66/21 77/67/23 
f 157/99/103 159/101/105 77/67/23 
f 161/103/107 73/65/19 75/66/21 
f 159/101/105 161/103/107 75/66/21 
f 162/104/108 71/64/17 73/65/19 
f 161/103/107 162/104/108 73/65/19 
f 164/106/110 69/63/15 71/64/17 
f 162/104/108 164/106/110 71/64/17 
f 166/108/112 67/62/13 69/63/15 
f 164/106/110 166/108/112 69/63/15 
f 167/109/113 65/61/11 67/62/13 
f 166/108/112 167/109/113 67/62/13 
s 5
f 169/111/115 63/60/9 65/61/11 
s 1
f 167/109/113 169/111/115 65/61/11 
s 12
f 172/113/118 61/59/7 63/60/9 
s 13
f 169/115/119 172/113/118 63/60/9 
# 0 polygons - 282 triangles

