# Blender v2.73 (sub 0) OBJ File: 'rover.blend'
# www.blender.org
g SolarPanels_L.001_Circle.032
v 1.089238 0.560573 0.258431
v -0.396701 0.649025 0.471614
v 1.284451 0.548953 0.537671
v -0.458309 0.652692 1.115777
v -0.138162 0.628451 0.254372
v -0.138162 0.628451 -0.230234
v -0.626740 0.649826 0.535894
v -0.626740 0.649826 -0.511756
v -0.845091 0.659379 0.405863
v -0.845091 0.659379 -0.381724
v 0.241909 0.611011 0.334178
v 0.412321 0.600867 0.897097
v 0.340531 0.605140 0.332948
v 0.496422 0.595861 0.846783
v 0.296535 0.607759 0.374393
v 0.433364 0.599614 0.787863
v -0.384944 0.648325 0.429180
v -0.437696 0.651465 1.160376
v 1.002114 0.565759 0.200969
v 1.275001 0.549515 0.587123
v -0.391956 0.639554 -0.370995
v -0.391956 0.639554 0.395133
v -0.388742 0.639414 -0.317708
v -0.388742 0.639414 0.341847
v -0.361664 0.638229 0.376263
v -0.361664 0.638229 -0.352124
v 1.090572 0.582992 0.258431
v -0.395367 0.671444 0.471614
v 1.285786 0.571371 0.537671
v -0.456974 0.675111 1.115777
v -0.137180 0.650888 0.254372
v -0.137180 0.650888 -0.230234
v -0.625758 0.672263 0.535894
v -0.625758 0.672263 -0.511756
v -0.844109 0.681816 0.405863
v -0.844109 0.681816 -0.381724
v 0.243244 0.633430 0.334178
v 0.413655 0.623286 0.897097
v 0.341866 0.627559 0.332948
v 0.497756 0.618280 0.846783
v 0.297869 0.630178 0.374393
v 0.434698 0.622033 0.787863
v -0.383609 0.670744 0.429180
v -0.436361 0.673884 1.160376
v 1.003448 0.588178 0.200969
v 1.276336 0.571934 0.587123
v -0.390975 0.661991 -0.370995
v -0.390975 0.661991 0.395133
v -0.387761 0.661851 -0.317708
v -0.387761 0.661851 0.341847
v -0.360682 0.660666 0.376263
v -0.360682 0.660666 -0.352124
v 1.082625 0.560967 -0.215754
v -0.400524 0.649253 -0.447619
v 1.281325 0.549139 -0.492515
v -0.454048 0.652439 -1.092507
v 0.236313 0.611344 -0.302158
v 0.413770 0.600781 -0.862888
v 0.334912 0.605475 -0.299687
v 0.497233 0.595813 -0.811520
v 0.291439 0.608063 -0.341682
v 0.433442 0.599610 -0.753398
v -0.389299 0.648584 -0.405041
v -0.432878 0.651178 -1.136842
v 0.994787 0.566195 -0.159392
v 1.272496 0.549664 -0.542082
v 1.083959 0.583385 -0.215754
v -0.399189 0.671671 -0.447619
v 1.282659 0.571558 -0.492515
v -0.452714 0.674857 -1.092507
v 0.237648 0.633763 -0.302158
v 0.415105 0.623200 -0.862888
v 0.336246 0.627894 -0.299687
v 0.498568 0.618231 -0.811520
v 0.292773 0.630481 -0.341682
v 0.434776 0.622029 -0.753398
v -0.387965 0.671003 -0.405041
v -0.431544 0.673597 -1.136842
v 0.996122 0.588614 -0.159392
v 1.273830 0.572083 -0.542082
v -0.201531 0.684244 -0.282889
v -0.204217 0.691113 0.312074
v 0.684240 0.605382 -0.210500
v 0.690892 0.611745 0.242241
v 0.823457 0.600927 -0.176429
v 0.821238 0.606309 0.194693
v -0.157533 0.679838 -0.320798
v -0.159849 0.687658 0.357412
v -0.199566 0.706615 -0.283135
v -0.202252 0.713483 0.311828
v 0.686205 0.627752 -0.210678
v 0.692857 0.634116 0.242062
v 0.825422 0.623297 -0.176608
v 0.823204 0.628680 0.194514
v -0.155568 0.702208 -0.321044
v -0.157884 0.710028 0.357166
v 0.013371 0.664721 -0.258199
v 0.012876 0.672245 0.254998
v 0.015336 0.687092 -0.258432
v 0.014841 0.694616 0.254766
v 0.093161 0.657663 -0.287949
v 0.093516 0.665050 0.326695
v 0.095126 0.680034 -0.288176
v 0.095481 0.687420 0.326469
v -0.072081 0.672279 -0.309601
v -0.073486 0.679952 0.338489
v -0.070116 0.694650 -0.309841
v -0.071521 0.702322 0.338249
v -0.029355 0.668500 -0.263798
v -0.030305 0.676098 0.259993
v -0.027390 0.690871 -0.264034
v -0.028340 0.698469 0.259757
v 0.053266 0.661192 -0.252972
v 0.053196 0.668648 0.254096
v 0.055231 0.683563 -0.253201
v 0.055161 0.691018 0.253867
vt 0.665041 0.454255
vt 0.680852 0.576972
vt 0.669453 0.589218
vt 0.399745 0.796987
vt 0.106396 0.802330
vt 0.055166 0.700151
vt 0.102798 0.611600
vt 0.391627 0.627621
vt 0.134704 0.330063
vt 0.356186 0.328406
vt 0.347863 0.592081
vt 0.395415 0.342174
vt 0.406091 0.581174
vt 0.380552 0.559243
vt 0.372667 0.343327
vt 0.125124 0.344404
vt 0.056644 0.570635
vt 0.643293 0.421189
vt 0.141891 0.815543
vt 0.147559 0.805194
vt 0.381297 0.798989
vt 0.186915 0.888654
vt 0.387130 0.814705
vt 0.444240 0.715417
vt 0.403529 0.801390
vt 0.375203 0.334345
vt 0.396894 0.333720
vt 0.391622 0.804717
vt 0.355983 0.897135
vt 0.181040 0.897135
vt 0.673095 0.597926
vt 0.403777 0.587746
vt 0.690271 0.581547
vt 0.043324 0.558076
vt 0.116907 0.338961
vt 0.134749 0.816900
vt 0.130011 0.321428
vt 0.358528 0.321428
vt 0.398651 0.618896
vt 0.393396 0.816450
vt 0.098683 0.813256
vt 0.043324 0.699365
vt 0.381776 0.572273
vt 0.133801 0.820181
vt 0.674031 0.450955
vt 0.649499 0.413695
vt 0.351322 0.888396
vt 0.050037 0.577633
vt 0.350479 0.601177
vt 0.097513 0.601482
vt 0.673731 0.080513
vt 0.684063 0.093757
vt 0.657534 0.215109
vt 0.115978 0.286641
vt 0.057132 0.048122
vt 0.352306 0.049579
vt 0.382173 0.085273
vt 0.409626 0.065570
vt 0.378093 0.303604
vt 0.337658 0.313845
vt 0.107264 0.271162
vt 0.051573 0.060309
vt 0.632896 0.246279
vt 0.378831 0.312191
vt 0.357178 0.309664
vt 0.407885 0.058796
vt 0.678134 0.072122
vt 0.693883 0.090003
vt 0.099215 0.274841
vt 0.043324 0.059366
vt 0.109222 0.294892
vt 0.355434 0.300446
vt 0.339290 0.321122
vt 0.384539 0.072346
vt 0.666237 0.219194
vt 0.638447 0.254316
vt 0.051151 0.040637
vt 0.355676 0.040637
vt 0.903087 0.672745
vt 0.732854 0.664126
vt 0.716231 0.449600
vt 0.875472 0.723597
vt 0.755039 0.709257
vt 0.946955 0.348036
vt 0.701988 0.348283
vt 0.716451 0.330014
vt 0.712019 0.321428
vt 0.938370 0.321428
vt 0.933756 0.330649
vt 0.956677 0.343744
vt 0.913392 0.677120
vt 0.880122 0.733607
vt 0.939414 0.446205
vt 0.947020 0.445481
vt 0.690577 0.344636
vt 0.749961 0.716506
vt 0.722890 0.667398
vt 0.704593 0.381795
vt 0.696702 0.385832
vt 0.935595 0.398472
vt 0.943492 0.402101
vt 0.940047 0.415499
vt 0.932366 0.414647
vt 0.736620 0.418145
vt 0.729972 0.401574
vt 0.708103 0.445898
vt 0.940266 0.428671
vt 0.737174 0.431657
vt 0.947576 0.381261
vt 0.956307 0.382942
vt 0.722536 0.407377
vt 0.729796 0.421322
vt 0.932017 0.430332
vt 0.731654 0.425241
vt 0.434441 0.715432
vt 0.051845 0.557715
vn 0.478500 -0.696900 -0.534200
vn 0.721400 -0.673100 -0.162700
vn 0.559400 -0.643400 0.522500
vn 0.653600 -0.634000 -0.413300
vn 0.653600 -0.634000 0.413300
vn -0.025400 -0.607300 0.794000
vn -0.714200 -0.580300 0.391300
vn -0.714200 -0.580300 -0.391300
vn -0.564000 -0.570200 -0.597200
vn 0.148100 -0.640300 -0.753700
vn 0.554200 -0.641700 0.530100
vn -0.385900 -0.628200 -0.675500
vn -0.204900 -0.597100 0.775500
vn 0.028600 -0.964200 0.263600
vn -0.080800 -0.879200 -0.469500
vn -0.753200 -0.644300 -0.132100
vn -0.363900 -0.564100 0.741200
vn 0.110900 -0.638500 -0.761500
vn -0.188300 -0.579000 0.793200
vn 0.083000 -0.915900 0.392800
vn 0.083000 -0.915900 -0.392800
vn 0.655200 -0.637400 0.405300
vn -0.188300 -0.579000 -0.793200
vn 0.001500 -0.000100 -1.000000
vn 0.853900 -0.037400 -0.519000
vn -0.060300 0.003600 -0.998200
vn -0.457100 0.027200 -0.889000
vn 0.298500 -0.013100 -0.954300
vn 0.859000 -0.037600 -0.510700
vn 0.859000 -0.037600 0.510700
vn 0.750900 -0.044700 0.658800
vn -0.212600 0.012700 0.977100
vn 0.976100 -0.058100 -0.209300
vn -0.984000 0.058600 0.168200
vn -0.981500 0.058400 -0.182100
vn -0.200800 0.008800 0.979600
vn -0.662000 0.039400 -0.748400
vn 0.239000 -0.014200 -0.970900
vn -0.868500 0.038000 -0.494300
vn -0.200800 0.008800 -0.979600
vn 0.853900 -0.037400 0.519000
vn 0.001500 -0.000100 1.000000
vn 0.309100 -0.018400 0.950900
vn 0.298500 -0.013100 0.954300
vn 0.695700 -0.041400 -0.717200
vn 0.191300 -0.011400 -0.981500
vn 0.655200 -0.637400 -0.405300
vn -0.405800 0.024200 0.913600
vn 0.743300 -0.044200 0.667500
vn -0.868500 0.038000 0.494300
vn 0.565900 -0.643800 -0.515000
vn 0.719300 -0.673000 0.172200
vn 0.471800 -0.696500 0.540700
vn -0.571500 -0.569800 0.590500
vn -0.354600 -0.564600 -0.745200
vn 0.560900 -0.642100 -0.522600
vn 0.031900 -0.964400 -0.262500
vn -0.195100 -0.597600 -0.777600
vn -0.394400 -0.627700 0.671100
vn 0.138600 -0.639700 0.755900
vn -0.754800 -0.644200 0.123200
vn -0.782600 -0.607300 -0.136800
vn 0.101400 -0.638000 0.763400
vn -0.468200 0.027900 0.883200
vn -0.072800 0.004300 0.997300
vn -0.200300 0.011900 -0.979700
vn 0.759200 -0.045200 -0.649300
vn 0.973400 -0.057900 0.221600
vn -0.983700 0.058600 0.169700
vn -0.981800 0.058400 -0.180600
vn -0.671400 0.040000 0.740000
vn -0.086700 -0.878900 0.469100
vn 0.226800 -0.013500 0.973800
vn 0.321000 -0.019100 -0.946900
vn 0.686600 -0.040900 0.725900
vn 0.179000 -0.010700 0.983800
vn -0.394300 0.023500 -0.918700
vn 0.751600 -0.044700 -0.658100
vn 0.084000 -0.717000 -0.692000
vn 0.128200 -0.693600 0.708900
vn -0.407800 -0.558000 0.722700
vn 0.598900 -0.633000 -0.490500
vn 0.617600 -0.631500 0.468700
vn -0.278100 -0.612000 -0.740300
vn -0.277800 -0.582500 0.763800
vn -0.771800 -0.561400 0.298600
vn -0.922800 0.085200 0.375700
vn -0.904500 0.074800 -0.419900
vn -0.761800 -0.562600 -0.321200
vn -0.285800 0.014600 -0.958200
vn 0.183600 -0.024000 -0.982700
vn 0.794600 -0.074600 -0.602500
vn -0.280400 -0.610500 -0.740700
vn -0.288900 0.015700 -0.957200
vn -0.283900 0.035500 0.958200
vn 0.819600 -0.067400 0.569000
vn 0.243500 -0.013600 0.969800
vn 0.411600 -0.656600 0.632000
vn 0.597100 -0.043900 0.800900
vn 0.199400 -0.821400 -0.534300
vn 0.454900 -0.049400 -0.889200
vn 0.128100 -0.021600 -0.991500
vn 0.027000 -0.720900 -0.692400
vn -0.028800 -0.894400 0.446300
vn 0.251000 -0.842200 0.477200
vn -0.444300 0.048100 0.894600
vn -0.290100 0.015700 -0.956900
vn -0.397900 -0.899200 0.182000
vn 0.291800 -0.674300 -0.678300
vn 0.452800 -0.049300 -0.890200
vn 0.554200 -0.039900 0.831400
vn 0.114900 0.000300 0.993400
vn -0.235200 -0.803500 -0.546900
vn -0.869600 0.081400 0.487000
vn -0.025400 -0.607300 -0.794000
vn -0.784300 -0.607200 0.127400
s 1
f 1/1/1 3/2/2 20/3/3
f 21/4/4 22/5/5 7/6/6
f 7/6/6 9/7/7 10/8/8
f 17/9/9 11/10/10 12/11/11
f 13/12/12 14/13/13 16/14/14
f 11/10/10 15/15/15 16/14/14
f 2/16/16 17/9/9 18/17/17
f 19/18/18 20/3/3 14/13/13
f 25/19/19 24/20/20 23/21/21
f 5/22/22 25/19/19 26/23/23
f 34/24/24 47/25/25 21/4/4
f 41/26/26 39/27/27 13/12/12
f 21/4/4 47/25/25 49/28/28
f 32/29/29 31/30/30 5/22/22
f 20/3/3 46/31/31 40/32/32
f 29/33/33 46/31/31 20/3/3
f 30/34/34 28/35/35 2/16/16
f 31/30/30 51/36/36 25/19/19
f 28/35/35 43/37/37 17/9/9
f 37/38/38 41/26/26 15/15/15
f 43/37/37 37/38/38 11/10/10
f 10/8/8 36/39/39 34/24/24
f 23/21/21 49/28/28 52/40/40
f 48/41/41 33/42/42 7/6/6
f 40/32/32 42/43/43 16/14/14
f 50/44/44 48/41/41 22/5/5
f 1/1/1 27/45/45 29/33/33
f 39/27/27 45/46/46 19/18/18
f 52/40/40 32/29/29 6/47/47
f 45/46/46 27/45/45 1/1/1
f 18/17/17 44/48/48 30/34/34
f 42/43/43 38/49/49 12/11/11
f 12/11/11 38/49/49 44/48/48
f 7/6/6 33/42/42 35/50/50
f 51/36/36 50/44/44 24/20/20
f 35/50/50 36/39/39 10/8/8
f 66/51/51 55/52/52 53/53/53
f 63/54/54 64/55/55 58/56/56
f 62/57/57 60/58/58 59/59/59
f 57/60/60 58/56/56 62/57/57
f 54/61/61 56/62/62 64/55/55
f 60/58/58 66/51/51 65/63/63
f 59/59/59 73/64/64 75/65/65
f 60/58/58 74/66/66 80/67/67
f 66/51/51 80/67/67 69/68/68
f 54/61/61 68/69/69 70/70/70
f 54/61/61 63/54/54 77/71/71
f 61/72/72 75/65/65 71/73/73
f 57/60/60 71/73/73 77/71/71
f 60/58/58 62/57/57 76/74/74
f 55/52/52 69/68/68 67/75/75
f 65/63/63 79/76/76 73/64/64
f 53/53/53 67/75/75 79/76/76
f 56/62/62 70/70/70 78/77/77
f 58/56/56 72/78/78 76/74/74
f 64/55/55 78/77/77 72/78/78
f 83/79/79 84/80/80 102/81/81
f 83/79/79 85/82/82 86/83/83
f 87/84/84 88/85/85 82/86/86
f 82/86/86 90/87/87 89/88/88
f 81/89/89 89/88/88 95/90/90
f 91/91/91 93/92/92 85/82/82
f 101/93/93 103/94/94 91/91/91
f 86/83/83 85/82/82 93/92/92
f 96/95/95 90/87/87 82/86/86
f 86/83/83 94/96/96 92/97/97
f 106/98/98 108/99/99 96/95/95
f 109/100/100 111/101/101 99/102/102
f 97/103/103 98/104/104 110/105/105
f 92/97/97 104/106/106 102/81/81
f 115/107/107 103/94/94 101/93/93
f 101/93/93 102/81/81 114/108/108
f 87/84/84 105/109/109 106/98/98
f 87/84/84 95/90/90 107/110/110
f 110/105/105 112/111/111 108/99/99
f 100/112/112 112/111/111 110/105/105
f 105/109/109 109/100/100 110/105/105
f 105/109/109 107/110/110 111/101/101
f 113/113/113 114/108/108 98/104/104
f 97/103/103 99/102/102 115/107/107
f 104/106/106 116/114/114 114/108/108
f 19/18/18 1/1/1 20/3/3
f 8/115/115 21/4/4 7/6/6
f 8/115/115 7/6/6 10/8/8
f 18/17/17 17/9/9 12/11/11
f 15/15/15 13/12/12 16/14/14
f 12/11/11 11/10/10 16/14/14
f 4/116/116 2/16/16 18/17/17
f 13/12/12 19/18/18 14/13/13
f 26/23/23 25/19/19 23/21/21
f 6/47/47 5/22/22 26/23/23
f 8/115/115 34/24/24 21/4/4
f 15/15/15 41/26/26 13/12/12
f 23/21/21 21/4/4 49/28/28
f 6/47/47 32/29/29 5/22/22
f 14/13/13 20/3/3 40/32/32
f 3/2/2 29/33/33 20/3/3
f 4/116/116 30/34/34 2/16/16
f 5/22/22 31/30/30 25/19/19
f 2/16/16 28/35/35 17/9/9
f 11/10/10 37/38/38 15/15/15
f 17/9/9 43/37/37 11/10/10
f 8/115/115 10/8/8 34/24/24
f 26/23/23 23/21/21 52/40/40
f 22/5/5 48/41/41 7/6/6
f 14/13/13 40/32/32 16/14/14
f 24/20/20 50/44/44 22/5/5
f 3/2/2 1/1/1 29/33/33
f 13/12/12 39/27/27 19/18/18
f 26/23/23 52/40/40 6/47/47
f 19/18/18 45/46/46 1/1/1
f 4/116/116 18/17/17 30/34/34
f 16/14/14 42/43/43 12/11/11
f 18/17/17 12/11/11 44/48/48
f 9/7/7 7/6/6 35/50/50
f 25/19/19 51/36/36 24/20/20
f 9/7/7 35/50/50 10/8/8
f 65/63/63 66/51/51 53/53/53
f 57/60/60 63/54/54 58/56/56
f 61/72/72 62/57/57 59/59/59
f 61/72/72 57/60/60 62/57/57
f 63/54/54 54/61/61 64/55/55
f 59/59/59 60/58/58 65/63/63
f 61/72/72 59/59/59 75/65/65
f 66/51/51 60/58/58 80/67/67
f 55/52/52 66/51/51 69/68/68
f 56/62/62 54/61/61 70/70/70
f 68/69/69 54/61/61 77/71/71
f 57/60/60 61/72/72 71/73/73
f 63/54/54 57/60/60 77/71/71
f 74/66/66 60/58/58 76/74/74
f 53/53/53 55/52/52 67/75/75
f 59/59/59 65/63/63 73/64/64
f 65/63/63 53/53/53 79/76/76
f 64/55/55 56/62/62 78/77/77
f 62/57/57 58/56/56 76/74/74
f 58/56/56 64/55/55 72/78/78
f 101/93/93 83/79/79 102/81/81
f 84/80/80 83/79/79 86/83/83
f 81/89/89 87/84/84 82/86/86
f 81/89/89 82/86/86 89/88/88
f 87/84/84 81/89/89 95/90/90
f 83/79/79 91/91/91 85/82/82
f 83/79/79 101/93/93 91/91/91
f 94/96/96 86/83/83 93/92/92
f 88/85/85 96/95/95 82/86/86
f 84/80/80 86/83/83 92/97/97
f 88/85/85 106/98/98 96/95/95
f 97/103/103 109/100/100 99/102/102
f 109/100/100 97/103/103 110/105/105
f 84/80/80 92/97/97 102/81/81
f 113/113/113 115/107/107 101/93/93
f 113/113/113 101/93/93 114/108/108
f 88/85/85 87/84/84 106/98/98
f 105/109/109 87/84/84 107/110/110
f 106/98/98 110/105/105 108/99/99
f 98/104/104 100/112/112 110/105/105
f 106/98/98 105/109/109 110/105/105
f 109/100/100 105/109/109 111/101/101
f 97/103/103 113/113/113 98/104/104
f 113/113/113 97/103/103 115/107/107
f 102/81/81 104/106/106 114/108/108
